G04*
G04 #@! TF.GenerationSoftware,Altium Limited,Altium Designer,21.3.2 (30)*
G04*
G04 Layer_Color=2752767*
%FSLAX25Y25*%
%MOIN*%
G70*
G04*
G04 #@! TF.SameCoordinates,C5881F53-B4D9-470E-9162-C71BBDC8BDA1*
G04*
G04*
G04 #@! TF.FilePolarity,Positive*
G04*
G01*
G75*
%ADD41C,0.00200*%
%ADD42C,0.00267*%
D41*
X244700Y303448D02*
Y305048D01*
X246300D01*
Y303448D01*
X244700D01*
Y271952D02*
Y273552D01*
X246300D01*
Y271952D01*
X244700D01*
X289500Y307200D02*
X288700Y308800D01*
X290300D01*
X289500Y307200D01*
X251500Y322700D02*
X250700Y324300D01*
X252300D01*
X251500Y322700D01*
X324000Y381700D02*
X323200Y383300D01*
X324800D01*
X324000Y381700D01*
X316000Y297200D02*
X315200Y298800D01*
X316800D01*
X316000Y297200D01*
X313500Y318700D02*
X312700Y320300D01*
X314300D01*
X313500Y318700D01*
Y356700D02*
X312700Y358300D01*
X314300D01*
X313500Y356700D01*
D42*
X186800Y266500D02*
G03*
X186800Y266500I-800J0D01*
G01*
X375300D02*
G03*
X375300Y266500I-800J0D01*
G01*
X376800Y386000D02*
G03*
X376800Y386000I-800J0D01*
G01*
X186800D02*
G03*
X186800Y386000I-800J0D01*
G01*
M02*
