G04*
G04 #@! TF.GenerationSoftware,Altium Limited,Altium Designer,21.3.2 (30)*
G04*
G04 Layer_Physical_Order=1*
G04 Layer_Color=255*
%FSLAX25Y25*%
%MOIN*%
G70*
G04*
G04 #@! TF.SameCoordinates,C5881F53-B4D9-470E-9162-C71BBDC8BDA1*
G04*
G04*
G04 #@! TF.FilePolarity,Positive*
G04*
G01*
G75*
%ADD12R,0.04528X0.05315*%
%ADD13R,0.05315X0.04528*%
%ADD14R,0.05118X0.05512*%
%ADD15R,0.12402X0.09646*%
%ADD16R,0.35433X0.39370*%
G04:AMPARAMS|DCode=17|XSize=40mil|YSize=120.08mil|CornerRadius=10mil|HoleSize=0mil|Usage=FLASHONLY|Rotation=0.000|XOffset=0mil|YOffset=0mil|HoleType=Round|Shape=RoundedRectangle|*
%AMROUNDEDRECTD17*
21,1,0.04000,0.10008,0,0,0.0*
21,1,0.02000,0.12008,0,0,0.0*
1,1,0.02000,0.01000,-0.05004*
1,1,0.02000,-0.01000,-0.05004*
1,1,0.02000,-0.01000,0.05004*
1,1,0.02000,0.01000,0.05004*
%
%ADD17ROUNDEDRECTD17*%
%ADD18R,0.09055X0.17913*%
%ADD19R,0.05512X0.05118*%
%ADD20R,0.06299X0.12598*%
%ADD33C,0.03937*%
%ADD34C,0.11811*%
%ADD35R,0.15748X0.15748*%
%ADD36C,0.05512*%
D12*
X306945Y298000D02*
D03*
X300055D02*
D03*
Y308000D02*
D03*
X306945D02*
D03*
D13*
X365000Y354390D02*
D03*
Y347500D02*
D03*
D14*
X358701Y365000D02*
D03*
X365000D02*
D03*
D15*
X296500Y356909D02*
D03*
Y332500D02*
D03*
D16*
X258185Y369910D02*
D03*
D17*
X244898Y333000D02*
D03*
X251598D02*
D03*
X265000D02*
D03*
X271701D02*
D03*
X258299D02*
D03*
D18*
X334500Y271539D02*
D03*
Y301461D02*
D03*
X334000Y365461D02*
D03*
Y335539D02*
D03*
D19*
X229500Y344150D02*
D03*
Y337850D02*
D03*
D20*
X209500Y350842D02*
D03*
Y331157D02*
D03*
D33*
X289500Y300500D02*
Y308000D01*
X292000Y298000D02*
X300055D01*
X289500Y300500D02*
X292000Y298000D01*
X229500Y344150D02*
Y349500D01*
X251567Y323567D02*
Y332968D01*
X251598Y333000D01*
X251500Y323500D02*
X251567Y323567D01*
X237028Y281224D02*
Y310694D01*
X264968Y315306D02*
Y332968D01*
X262662Y313000D02*
X264968Y315306D01*
X239334Y313000D02*
X262662D01*
X237028Y310694D02*
X239334Y313000D01*
X258299Y320306D02*
Y333000D01*
X239806Y318000D02*
X255993D01*
X237500Y320306D02*
X239806Y318000D01*
X255993D02*
X258299Y320306D01*
X237500D02*
Y367603D01*
X334000Y365461D02*
Y380323D01*
X324129Y382629D02*
X331694D01*
X334000Y380323D01*
X324000Y382500D02*
X324129Y382629D01*
X306945Y298000D02*
X316000D01*
X255879Y367603D02*
X258185Y369910D01*
X237500Y367603D02*
X255879D01*
X269694Y304248D02*
X272000Y306554D01*
Y328066D01*
X245500Y304248D02*
X269694D01*
X271732Y328334D02*
Y332968D01*
X271701Y333000D02*
X271732Y332968D01*
Y328334D02*
X272000Y328066D01*
X264968Y332968D02*
X265032Y333032D01*
X245500Y287000D02*
Y304248D01*
X265032Y339694D02*
X267338Y342000D01*
X289962D01*
X292268Y339694D01*
X295122Y332500D02*
X296500D01*
X265032Y333032D02*
Y339694D01*
X292268Y335354D02*
Y339694D01*
Y335354D02*
X295122Y332500D01*
X339591Y347063D02*
X340154Y346500D01*
X244898Y333000D02*
Y344194D01*
X247767Y347063D01*
X340154Y346500D02*
X363606D01*
X247767Y347063D02*
X339591D01*
X363606Y346500D02*
X364606Y347500D01*
X365000D01*
X300055Y298000D02*
Y308000D01*
X209500Y329842D02*
X210157Y330500D01*
X209500Y322500D02*
Y329842D01*
Y322500D02*
X212500Y319500D01*
X224500D01*
X228000Y275500D02*
Y316000D01*
X224500Y319500D02*
X228000Y316000D01*
X246000Y257500D02*
X254000D01*
X228000Y275500D02*
X246000Y257500D01*
X254000D02*
X257500Y261000D01*
X202751Y328251D02*
X208319D01*
X185500Y311000D02*
X202751Y328251D01*
X185500Y267000D02*
X186000Y266500D01*
X185500Y267000D02*
Y311000D01*
X210157Y330500D02*
X227194D01*
X229500Y332806D01*
Y337850D01*
X257500Y261000D02*
Y275000D01*
X237028Y281224D02*
X245500Y272752D01*
Y287000D02*
X257500Y275000D01*
X309699Y319199D02*
X313199D01*
X313500Y319500D01*
X306945Y316445D02*
X309699Y319199D01*
X306945Y308000D02*
Y316445D01*
X296500Y356909D02*
X312483D01*
X313074Y357500D01*
X313500D01*
X258776Y370500D02*
X315500D01*
X258185Y369910D02*
X258776Y370500D01*
X315500D02*
X320539Y365461D01*
X334000D01*
X334461Y365000D01*
X358701D01*
X363000Y386000D02*
X376000D01*
X358701Y365000D02*
Y381701D01*
X363000Y386000D01*
X365000Y354390D02*
Y365000D01*
X228157Y350842D02*
X229500Y349500D01*
X209500Y350842D02*
Y376500D01*
Y350842D02*
X228157D01*
X334250Y301711D02*
Y335289D01*
Y301711D02*
X334500Y301461D01*
X334000Y335539D02*
X334250Y335289D01*
X306945Y308000D02*
X315500D01*
X322039Y301461D01*
X334500D01*
X306945Y291555D02*
X319972Y278528D01*
X306945Y291555D02*
Y298000D01*
X334500Y271539D02*
Y275969D01*
X331941Y278528D02*
X334500Y275969D01*
X319972Y278528D02*
X331941D01*
X334500Y301461D02*
X334961Y301000D01*
X368500D01*
X374500Y266500D02*
Y295000D01*
X368500Y301000D02*
X374500Y295000D01*
X186000Y386000D02*
X200000D01*
X209500Y376500D01*
D34*
X245500Y304248D02*
D03*
Y272752D02*
D03*
D35*
X186000Y266500D02*
D03*
X374500D02*
D03*
X376000Y386000D02*
D03*
X186000D02*
D03*
D36*
X289500Y308000D02*
D03*
X251500Y323500D02*
D03*
X324000Y382500D02*
D03*
X316000Y298000D02*
D03*
X313500Y319500D02*
D03*
Y357500D02*
D03*
M02*
