G04*
G04 #@! TF.GenerationSoftware,Altium Limited,Altium Designer,21.3.2 (30)*
G04*
G04 Layer_Color=128*
%FSLAX25Y25*%
%MOIN*%
G70*
G04*
G04 #@! TF.SameCoordinates,C5881F53-B4D9-470E-9162-C71BBDC8BDA1*
G04*
G04*
G04 #@! TF.FilePolarity,Positive*
G04*
G01*
G75*
%ADD41C,0.00200*%
D41*
X243138Y304248D02*
X247862D01*
X245500Y301886D02*
Y306610D01*
X243138Y272752D02*
X247862D01*
X245500Y270390D02*
Y275114D01*
X182063Y266500D02*
X189937D01*
X186000Y262563D02*
Y270437D01*
X370563Y266500D02*
X378437D01*
X374500Y262563D02*
Y270437D01*
X372063Y386000D02*
X379937D01*
X376000Y382063D02*
Y389937D01*
X182063Y386000D02*
X189937D01*
X186000Y382063D02*
Y389937D01*
X288100Y308000D02*
X290900D01*
X289500Y306600D02*
Y309400D01*
X250100Y323500D02*
X252900D01*
X251500Y322100D02*
Y324900D01*
X322600Y382500D02*
X325400D01*
X324000Y381100D02*
Y383900D01*
X314600Y298000D02*
X317400D01*
X316000Y296600D02*
Y299400D01*
X312100Y319500D02*
X314900D01*
X313500Y318100D02*
Y320900D01*
X312100Y357500D02*
X314900D01*
X313500Y356100D02*
Y358900D01*
M02*
